<svg xmlns="http://www.w3.org/2000/svg" version="1.1" xmlns:xlink="http://www.w3.org/1999/xlink" xmlns:svgjs="http://svgjs.dev/svgjs" width="309.12" height="309.12"><svg id="SvgjsSvg1007" data-name="Layer 2" xmlns="http://www.w3.org/2000/svg" viewBox="0 0 309.12 309.12">
  <g id="SvgjsG1006" data-name="Layer 4">
    <circle cx="154.56" cy="154.56" r="154" style="fill: #3d5a80; stroke: #3d5a80; stroke-miterlimit: 10; stroke-width: 1.12px;"></circle>
    <path d="M46.56,91.56c2.59,26.98,6.64,54.23,5.9,81.39-.15,5.6,8.5,6.85,9.82,1.33,7.77-32.44,11.04-65.79,19.75-98.03,2.88-10.67,8-24.68,20.25-27.43,5.6-1.26,11.39-.59,16.22,2.51,7.23,4.64,8.97,11.32,9.57,19.62,2.2,30.46-13.65,63.33,4.52,91.52,6.92,10.75,17.84,18.35,30.86,18.88,13.15.53,25.66-6.27,35.04-15.01s20.03-22.72,14.5-36c-5.41-12.98-21.25-12.78-28.82-1.83-4.04,5.84-4.93,13.13-6.17,19.95-1.33,7.3-2.73,14.59-4.31,21.84-3.08,14.16-6.84,28.25-12.33,41.69-7.03,17.23-33.06,66.11-56.88,42.89-17.75-17.3-4.64-51.58,18.5-55.98,6.41-1.22,12.46-1.09,18.31,2.05,6.76,3.62,12.15,10.06,17.33,15.6,10.27,11,20.11,22.56,32.75,30.96,11.57,7.69,25.68,12.67,39.68,10.41,11.93-1.93,23.31-10.22,28.31-21.28,2.6-5.74,3.21-11.55,2.22-17.75s-10.65-3.65-9.64,2.66c2.06,12.84-9.89,23.77-21.48,26.33-14.44,3.19-29.52-4.75-40.33-13.65-11.92-9.8-21.33-22.2-32.37-32.91-5.08-4.93-10.37-9.11-17.1-11.53-5.71-2.05-11.68-1.84-17.59-.98-23.78,3.45-39.43,27.95-36.4,51.38,1.48,11.46,8.56,22.68,19.18,27.7,12.23,5.79,25.07,1.21,34.86-7.08,21.47-18.18,32.55-47.76,39.4-74.2,3.66-14.15,5.95-28.52,8.89-42.81.98-4.75,5.32-18.02,12.57-12.78,6.61,4.77,1.06,14.61-2.32,19.38-7.55,10.66-20.04,20.57-33.62,20.96s-23.84-9.9-28.48-21.94c-5.82-15.12-3.28-32.03-1.26-47.63,1.96-15.14,4.91-32.19-.98-46.87-4.51-11.22-17.85-17.32-29.35-16.56-12.08.79-21.69,8.54-27.19,19.09-6.21,11.92-8.66,26.07-11.38,39.1-3.48,16.71-6.02,33.6-9.14,50.38-1.54,8.27-3.23,16.5-5.19,24.68l9.82,1.33c.74-27.16-3.31-54.42-5.9-81.39-.61-6.35-10.62-6.41-10,0h0Z" style="fill: #fff4e5;"></path>
  </g>
</svg><style>@media (prefers-color-scheme: light) { :root { filter: none; } }
@media (prefers-color-scheme: dark) { :root { filter: none; } }
</style></svg>